<svg width="505" height="541" viewBox="0 0 505 541" fill="none" xmlns="http://www.w3.org/2000/svg">
  <style>
    path {
      fill: #1C1C1C; /* Premium charcoal grey for light browser tabs */
    }
    @media (prefers-color-scheme: dark) {
      path {
        fill: #FFFFFF; /* Pure crisp white for dark browser tabs */
      }
    }
  </style>
  <path d="M503.66 372.74C484.85 385.24 466.95 397.07 449.12 409.01C390.2 448.46 331.31 487.94 272.41 527.41C266.74 531.21 260.94 534.84 255.49 538.93C252.61 541.09 250.69 541.07 247.65 539.02C198 505.44 148.29 471.96 98.52 438.56C67.14 417.5 35.64 396.62 4.2 375.64C3.25 375 2.37 374.25 1.01 373.22C31.38 339.19 61.59 305.34 92.13 271.12C61.43 236.38 31 201.94 0 166.85C84.18 111.19 167.97 55.78 252.33 0C336.04 55.47 419.67 110.89 504.04 166.8C473.67 201.73 443.68 236.23 413.47 270.98C443.56 304.94 473.36 338.56 503.66 372.75V372.74ZM125.16 258.72C167.95 212.96 210.12 167.87 252.48 122.57C295.1 168.26 337.34 213.54 380.05 259.32C405.1 230.77 429.94 202.46 454.93 173.97C451.02 171.16 447.87 168.72 444.55 166.53C385.07 127.33 325.57 88.15 266.06 48.99C261.48 45.98 256.75 40.81 252.16 40.88C247.31 40.95 242.44 45.96 237.74 49.06C184.92 83.82 132.13 118.61 79.35 153.42C69.52 159.9 59.77 166.5 49.5 173.37C74.83 201.94 99.76 230.07 125.16 258.72ZM251.77 418.29C209.51 372.41 167.8 327.13 125.72 281.44C100.31 309.81 75.24 337.8 50 365.98C51.39 367.05 52.38 367.9 53.46 368.63C117.7 412.09 181.99 455.47 246.09 499.13C250.37 502.04 252.85 501.69 256.8 499.02C307.5 464.66 358.29 430.44 409.12 396.26C424.14 386.16 439.31 376.3 455.11 365.87C430.08 337.52 405.36 309.52 380.5 281.37C337.43 327.18 294.88 372.44 251.78 418.29H251.77ZM252.78 144.9C251.98 145.28 251.62 145.34 251.42 145.56C234.91 163.18 218.41 180.8 201.92 198.44C181 220.83 160.09 243.23 139.21 265.65C137.37 267.63 135.04 269.11 138.21 272.51C170.2 306.89 202 341.44 233.84 375.96C240.03 382.67 246.15 389.45 252.6 396.52C291.82 354.42 330.67 312.71 369.75 270.76C330.39 228.41 291.53 186.6 252.78 144.91V144.9Z" />
</svg>
